<svg width="29" height="27" viewBox="0 0 29 27" fill="none" xmlns="http://www.w3.org/2000/svg">
<path d="M23.016 11.6865C25.914 11.6865 28.266 9.3345 28.266 6.4365C28.266 5.3655 27.951 4.3785 27.384 3.5385L23.016 7.9065L21.525 6.4155L25.893 2.0475C25.053 1.5015 24.066 1.1655 22.995 1.1655C20.097 1.1655 17.745 3.5175 17.745 6.4155C17.745 7.0875 17.892 7.7385 18.123 8.3265L15.582 10.8885L13.377 8.6625L14.868 7.1715L11.886 4.2105L14.847 1.2285C13.209 -0.4095 10.542 -0.4095 8.904 1.2285L2.982 7.1715L5.208 9.3975H0.735L0 10.1325L5.943 16.0755L6.678 15.3405L6.699 10.8885L8.925 13.1145L10.416 11.6235L12.642 13.8495L2.982 23.5095L5.943 26.4705L21.105 11.3085C21.693 11.5395 22.344 11.6865 23.016 11.6865Z" fill="black"/>
</svg>
