<svg width="37" height="42" viewBox="0 0 37 42" fill="none" xmlns="http://www.w3.org/2000/svg">
<path d="M36.0441 25.2716C36.0441 23.3257 35.5457 21.4963 34.6695 19.9039C34.7864 19.7329 34.8865 19.5494 34.9675 19.3555C35.2743 18.6223 35.2859 17.7988 34.9997 17.0573C34.7135 16.3157 34.1517 15.7135 33.4319 15.3764C32.9106 15.1323 32.3355 15.041 31.7722 15.106C32.0061 14.6356 32.1936 14.141 32.3306 13.629L33.3534 9.82786C33.6576 8.86315 33.7651 7.84705 33.6692 6.83984C33.5723 5.82116 33.2694 4.83278 32.779 3.93467C32.2887 3.03655 31.6209 2.2474 30.8163 1.6151C30.0118 0.982782 29.0872 0.520494 28.0987 0.256256C27.11 -0.00798478 26.0781 -0.0686613 25.0654 0.0779027C24.0526 0.224472 23.0803 0.575224 22.2071 1.10889C21.334 1.64255 20.5784 2.34801 19.9861 3.18246C19.8592 3.36118 19.7405 3.54499 19.6301 3.73338C19.1734 3.10541 18.6017 2.56887 17.9445 2.15258C17.2251 1.69671 16.4188 1.39497 15.5768 1.26643C14.7347 1.13788 13.8751 1.18533 13.0523 1.40577C12.2296 1.62621 11.4615 2.01487 10.7964 2.54716C10.1314 3.07947 9.58399 3.74388 9.1888 4.49844C8.79356 5.25299 8.55906 6.08129 8.50011 6.93106C8.44592 7.71222 8.54116 8.4959 8.78006 9.24029H5.58639C0.0693404 9.24029 -2.09715 16.3957 2.49332 19.456L5.19846 21.2595L3.31163 28.6591C3.07584 29.552 3.05005 30.4874 3.23628 31.392C3.42251 32.2966 3.8157 33.1457 4.38503 33.8728C4.95063 34.602 5.67555 35.1921 6.50432 35.5981C6.76196 35.7242 7.02752 35.8316 7.29891 35.9197V40.606C7.29891 41.3759 7.92305 42 8.69294 42H23.386H23.3963H34.65C35.4198 42 36.0441 41.3759 36.0441 40.606V25.2716ZM16.5277 36.2148H20.3187C21.1263 36.2149 21.9016 35.8981 22.4778 35.3322C23.0539 34.7665 23.385 33.9972 23.3995 33.1897C23.3997 32.7767 23.318 32.3677 23.1595 31.9861C23.001 31.6047 22.7687 31.2583 22.476 30.967C22.1832 30.6755 21.8358 30.4448 21.4537 30.2879C21.0715 30.1311 20.6622 30.0514 20.249 30.0532H16.5277V26.2075C16.5277 25.7413 16.2947 25.3061 15.9069 25.0475L4.03986 17.1362C1.74463 15.606 2.82787 12.0283 5.58639 12.0283H9.54403L9.87785 13.2691C10.1968 14.4559 10.8453 15.5284 11.7482 16.3621C12.6511 17.196 13.7715 17.7571 14.98 17.9809C15.8127 18.1266 16.6669 18.0885 17.4833 17.8694C18.2091 17.6746 18.8893 17.3407 19.4865 16.8873C19.5638 16.9006 19.6427 16.9075 19.7226 16.9075H24.8918C25.4248 16.9075 25.946 16.9572 26.4513 17.0526L22.954 18.3991C22.2853 18.6589 21.7281 19.1439 21.3787 19.7704C21.0294 20.397 20.9096 21.1259 21.0401 21.8313C21.1706 22.5367 21.5432 23.1745 22.0937 23.6346C22.6441 24.0947 23.3379 24.3482 24.0553 24.3516C24.4367 24.3512 24.8147 24.2804 25.1705 24.1425L32.3056 21.3954C32.9125 22.5541 33.256 23.8727 33.256 25.2716V39.2119H16.5277V36.2148ZM21.551 14.1194C21.6046 13.9818 21.6534 13.8421 21.6974 13.7007C22.0626 12.5284 22.0875 11.2765 21.7689 10.0907L21.1444 7.83094L21.4797 6.58532L21.4871 6.55088C21.6231 5.9197 21.886 5.32273 22.2598 4.79619C22.6335 4.26964 23.1103 3.8245 23.6612 3.48776C24.2121 3.15103 24.8256 2.9297 25.4646 2.83722C26.1038 2.74474 26.7549 2.78302 27.3786 2.94976C28.0025 3.11648 28.5859 3.4082 29.0936 3.80718C29.6013 4.20617 30.0226 4.70412 30.332 5.27082C30.6415 5.83753 30.8325 6.46119 30.8937 7.10398C30.9549 7.74677 30.8849 8.39527 30.6878 9.01017L30.6779 9.04148L29.6371 12.9091C29.4536 13.5953 29.1298 14.2328 28.6892 14.7826C27.5038 14.3533 26.2252 14.1194 24.8918 14.1194H21.551Z" fill="#212121"/>
</svg>
