<svg width="36" height="26" viewBox="0 0 36 26" fill="none" xmlns="http://www.w3.org/2000/svg">
<path d="M30.6 9H29.7L23.5811 1.35113C23.2438 0.929579 22.8159 0.58928 22.3293 0.355406C21.8427 0.121532 21.3097 6.75054e-05 20.7697 0H8.73731C7.26525 0 5.94169 0.896063 5.39494 2.26294L2.7 9.12712C1.14975 9.52875 0 10.9243 0 12.6V18.9C0 19.3973 0.40275 19.8 0.9 19.8H3.6C3.6 22.7824 6.01762 25.2 9 25.2C11.9824 25.2 14.4 22.7824 14.4 19.8H21.6C21.6 22.7824 24.0176 25.2 27 25.2C29.9824 25.2 32.4 22.7824 32.4 19.8H35.1C35.5972 19.8 36 19.3973 36 18.9V14.4C36 11.4176 33.5824 9 30.6 9ZM9 22.5C7.51106 22.5 6.3 21.2889 6.3 19.8C6.3 18.3111 7.51106 17.1 9 17.1C10.4889 17.1 11.7 18.3111 11.7 19.8C11.7 21.2889 10.4889 22.5 9 22.5ZM13.05 9H6.57731L8.73731 3.6H13.05V9ZM15.75 9V3.6H20.7697L25.0898 9H15.75ZM27 22.5C25.5111 22.5 24.3 21.2889 24.3 19.8C24.3 18.3111 25.5111 17.1 27 17.1C28.4889 17.1 29.7 18.3111 29.7 19.8C29.7 21.2889 28.4889 22.5 27 22.5Z" fill="black"/>
</svg>
